<?xml version="1.0" standalone="no"?>
<!DOCTYPE svg PUBLIC "-//W3C//DTD SVG 20010904//EN"
 "http://www.w3.org/TR/2001/REC-SVG-20010904/DTD/svg10.dtd">
<svg version="1.0" xmlns="http://www.w3.org/2000/svg"
 width="512.000000pt" height="512.000000pt" viewBox="0 0 512.000000 512.000000"
 preserveAspectRatio="xMidYMid meet">

<g transform="translate(0.000000,512.000000) scale(0.100000,-0.100000)"
fill="#000000" stroke="none">
<path d="M999 5026 c-3 -3 -91 -9 -196 -15 l-192 -10 -51 -33 c-35 -22 -63
-52 -88 -93 l-37 -60 -3 -355 c-4 -403 1 -380 -89 -380 -42 0 -63 -7 -105 -32
-65 -40 -90 -68 -123 -137 -24 -50 -26 -63 -22 -155 5 -141 31 -198 118 -261
41 -29 60 -36 120 -41 39 -4 77 -13 85 -21 19 -20 21 -505 2 -520 -7 -6 -36
-13 -65 -16 -107 -12 -205 -82 -242 -175 -8 -21 -16 -81 -18 -138 -4 -92 -2
-105 22 -155 54 -112 140 -169 258 -169 19 0 40 -6 46 -14 8 -9 11 -88 9 -267
l-3 -253 -70 -11 c-122 -19 -196 -72 -241 -172 -20 -46 -24 -72 -24 -149 0
-83 3 -101 30 -157 45 -96 138 -155 245 -157 62 -1 60 16 65 -392 5 -349 6
-375 25 -408 38 -67 76 -109 123 -136 l47 -27 465 -11 c585 -13 1965 -13 2595
0 l480 10 56 36 c56 36 78 61 115 128 18 33 19 75 25 955 3 586 9 935 16 960
11 45 151 390 243 600 34 77 72 170 85 208 33 94 87 221 151 357 30 63 68 162
85 219 17 58 35 114 42 125 11 20 21 71 33 168 8 56 -12 173 -32 189 -8 6 -14
17 -14 23 0 22 -64 73 -125 100 -33 15 -68 31 -77 36 -10 6 -23 10 -30 10 -7
0 -25 6 -39 14 -15 7 -55 23 -89 35 -73 26 -144 22 -199 -10 -18 -11 -36 -17
-40 -14 -3 4 -8 129 -11 278 l-5 272 -28 50 c-33 59 -69 98 -115 127 -28 17
-61 22 -195 31 -161 10 -3009 22 -3018 13z m3135 -225 c14 -14 30 -41 36 -60
6 -21 10 -189 10 -398 0 -288 -3 -369 -14 -395 -8 -18 -21 -51 -29 -73 -18
-49 -122 -308 -148 -370 -4 -11 -18 -45 -29 -75 -12 -30 -26 -64 -30 -75 -5
-11 -19 -45 -31 -75 -12 -30 -27 -68 -34 -85 -7 -16 -21 -52 -30 -80 -10 -27
-21 -54 -25 -60 -4 -5 -15 -32 -25 -60 -9 -27 -23 -63 -31 -80 -7 -16 -33 -84
-59 -150 -25 -66 -52 -133 -59 -150 -7 -16 -20 -48 -29 -70 -19 -51 -75 -191
-92 -230 -7 -16 -20 -48 -28 -70 -14 -37 -68 -174 -88 -220 -4 -11 -18 -45
-29 -75 -12 -30 -26 -64 -30 -75 -5 -11 -19 -45 -30 -75 -12 -30 -26 -64 -31
-75 -5 -11 -18 -45 -29 -75 -11 -30 -24 -64 -29 -75 -5 -11 -19 -45 -31 -75
-11 -30 -25 -64 -30 -75 -5 -11 -23 -56 -40 -100 l-31 -80 6 -240 c18 -628 19
-641 39 -664 10 -11 16 -27 12 -36 -5 -14 -131 -15 -1237 -13 l-1231 3 -29 35
-29 34 2 581 3 580 28 3 c34 4 73 -19 82 -49 10 -29 20 -43 80 -101 27 -26 59
-48 70 -48 12 0 26 -5 33 -12 6 -6 47 -13 91 -16 73 -4 84 -2 143 26 94 46
178 145 178 210 0 13 5 33 11 44 14 27 -5 124 -37 189 -38 76 -139 158 -197
159 -10 0 -28 5 -39 11 -23 12 -92 1 -178 -28 -52 -18 -127 -90 -156 -149 -17
-34 -24 -40 -62 -45 -28 -3 -45 -2 -48 5 -2 6 -3 229 -2 496 l3 485 33 3 c34
3 72 -19 72 -43 0 -32 126 -155 160 -155 9 0 22 -6 29 -12 21 -22 178 -15 231
10 101 47 154 114 185 234 13 51 13 66 0 121 -19 81 -37 116 -84 165 -45 46
-85 68 -161 88 -119 32 -280 -33 -337 -137 -42 -76 -45 -79 -90 -79 l-43 0 2
498 3 497 36 3 c30 3 41 -2 58 -24 11 -15 21 -32 21 -39 0 -7 22 -35 48 -61
59 -59 77 -74 94 -74 7 0 22 -7 32 -15 14 -10 45 -15 100 -15 70 0 89 4 141
30 107 54 153 112 180 226 13 57 13 71 -1 130 -17 73 -31 100 -86 159 -41 45
-77 65 -158 88 -51 15 -60 15 -125 -1 -113 -27 -207 -97 -229 -168 -11 -36
-41 -56 -78 -52 l-33 3 -3 341 -2 342 35 31 36 31 1709 -2 1708 -3 26 -24z
m-3059 -691 c14 -5 37 -22 50 -36 34 -37 35 -126 2 -165 -22 -26 -79 -59 -102
-59 -28 0 -98 44 -115 73 -67 109 43 233 165 187z m3502 -15 c28 -15 49 -24
156 -66 74 -30 97 -60 97 -129 0 -65 -27 -159 -47 -167 -9 -4 -23 -1 -32 5
-75 53 -185 105 -260 124 -147 36 -150 40 -102 123 36 61 88 112 121 118 14 2
28 5 32 6 3 0 19 -6 35 -14z m-4158 -214 c6 -10 9 -68 8 -127 l-2 -109 -54 0
c-47 0 -57 4 -74 26 -28 38 -34 111 -12 158 26 60 113 93 134 52z m4005 -187
c159 -40 286 -142 286 -229 0 -13 -101 -264 -224 -557 -356 -848 -665 -1599
-695 -1690 -18 -56 -34 -64 -71 -38 -44 31 -106 63 -165 85 -27 10 -54 22 -60
26 -5 4 -37 13 -70 20 -33 7 -68 16 -77 21 -19 9 -24 43 -9 52 4 3 16 27 26
53 10 26 33 86 52 133 19 47 42 103 51 125 8 22 26 63 39 92 12 28 23 56 23
61 0 8 14 44 50 127 5 11 70 175 145 365 75 190 140 354 145 365 14 31 62 154
144 370 202 530 210 548 255 589 26 24 62 44 80 45 7 1 41 -6 75 -15z m-3342
-770 c9 -3 29 -19 43 -35 20 -25 25 -41 25 -88 0 -50 -4 -60 -27 -82 -27 -24
-59 -42 -93 -52 -18 -5 -75 17 -93 35 -49 51 -60 118 -30 166 41 64 91 79 175
56z m-668 -223 c14 -16 17 -36 14 -127 -2 -60 -7 -112 -13 -116 -16 -12 -78
-9 -96 5 -47 35 -63 141 -30 192 18 27 70 61 97 64 6 1 19 -8 28 -18z m708
-990 c24 -27 28 -40 28 -89 -1 -68 -22 -98 -89 -127 l-43 -19 -46 24 c-148 80
-82 279 83 249 26 -5 49 -18 67 -38z m3053 -113 c3 -18 5 -301 3 -628 -2 -483
-6 -600 -17 -622 -28 -55 -53 -58 -491 -58 -278 0 -401 3 -406 11 -5 9 269
293 558 580 32 31 61 87 111 209 19 47 68 166 109 265 42 99 84 201 94 227 10
27 22 48 26 48 4 0 10 -15 13 -32z m-3756 -82 c7 -9 10 -52 8 -127 l-3 -114
-47 -3 c-38 -3 -51 1 -71 21 -32 32 -44 123 -21 170 24 52 107 85 134 53z
m2985 -391 c22 -4 49 -13 60 -21 11 -8 26 -14 34 -14 21 0 152 -91 152 -105 0
-15 -325 -345 -339 -345 -5 0 -12 8 -15 18 -9 30 -11 456 -3 470 5 8 21 11 40
8 18 -3 50 -8 71 -11z"/>
<path d="M2030 4299 c-261 -3 -476 -6 -477 -7 -49 -47 -51 -52 -58 -134 -4
-46 -5 -260 -3 -475 l3 -391 24 -26 c14 -15 41 -31 60 -37 24 -7 369 -9 1032
-7 l996 3 35 27 36 27 6 283 c4 156 3 374 -1 485 -8 197 -9 201 -33 222 -14
11 -43 22 -65 25 -62 8 -1027 12 -1555 5z m1448 -186 l22 -5 0 -349 0 -349
-910 0 -910 0 0 348 c0 192 3 352 7 356 8 8 1755 7 1791 -1z"/>
<path d="M1820 3765 l0 -215 45 0 45 0 0 151 0 150 100 -150 100 -151 45 0 45
0 0 216 0 215 -42 -3 -43 -3 -3 -144 -3 -145 -95 147 -96 147 -49 0 -49 0 0
-215z"/>
<path d="M2395 3965 c-84 -45 -120 -115 -113 -223 6 -119 70 -184 187 -190 88
-4 143 23 186 92 26 43 30 59 30 120 0 84 -22 134 -79 180 -33 27 -47 31 -109
34 -52 2 -80 -2 -102 -13z m153 -75 c1 0 11 -15 22 -32 27 -45 27 -141 0 -185
-21 -35 -69 -54 -114 -46 -78 15 -113 158 -58 233 24 33 77 50 117 39 16 -5
31 -9 33 -9z"/>
<path d="M2720 3940 l0 -40 60 0 60 0 0 -176 0 -175 43 3 42 3 3 173 2 172 60
0 60 0 0 40 0 40 -165 0 -165 0 0 -40z"/>
<path d="M3100 3765 l0 -215 125 0 125 0 0 40 0 40 -80 0 -80 0 0 50 0 50 70
0 70 0 0 35 0 34 -67 3 -68 3 -3 48 -3 47 75 0 76 0 0 40 0 40 -120 0 -120 0
0 -215z"/>
<path d="M1723 2811 c-34 -6 -73 -48 -73 -78 0 -29 38 -83 66 -93 35 -13 1849
-14 1874 0 10 5 27 28 39 50 l21 41 -22 39 c-16 27 -31 40 -53 44 -38 8 -1809
5 -1852 -3z"/>
<path d="M1987 2230 l-289 -5 -24 -30 c-13 -16 -24 -38 -24 -47 0 -34 25 -70
60 -88 34 -17 81 -18 813 -20 521 0 790 3 816 10 25 6 42 18 46 30 4 11 11 20
16 20 5 0 9 20 9 43 0 51 -18 73 -70 81 -48 8 -1000 12 -1353 6z"/>
<path d="M1837 1641 c-133 -5 -150 -8 -163 -26 -37 -50 -24 -106 33 -135 40
-21 1350 -22 1400 -1 62 25 65 123 5 151 -31 14 -1015 23 -1275 11z"/>
<path d="M4305 3401 c-46 -11 -73 -32 -78 -60 -9 -51 -196 -539 -332 -866 -7
-16 -21 -52 -30 -80 -10 -27 -21 -54 -25 -60 -4 -5 -15 -32 -25 -60 -9 -27
-23 -63 -31 -80 -47 -107 -134 -343 -134 -363 0 -31 26 -79 49 -92 31 -16 79
-12 98 9 10 11 27 42 37 68 19 48 172 413 205 488 28 64 147 380 157 415 3 14
15 39 25 56 11 17 19 37 19 44 0 12 11 38 51 128 10 23 19 48 19 54 0 6 9 30
19 52 30 63 81 224 81 254 0 26 -53 103 -68 101 -4 -1 -20 -4 -37 -8z"/>
</g>
</svg>
